<svg version="1.2" xmlns="http://www.w3.org/2000/svg" viewBox="0 0 1557 818" width="1557" height="818">
	<title>logo (20)-svg</title>
	<style>
		.s0 { fill: #ffffff } 
	</style>
	<path id="Layer" fill-rule="evenodd" class="s0" d="m80.8 552.7h175.4v75.6h-175.4v178.7h-80.8v-436.7h290.4q-3.7 9.1-6.8 18.4-3.1 9.3-5.6 18.7-2.6 9.5-4.5 19.1-2 9.6-3.3 19.4h-189.4zm226.2-106.9c5.1-32.6 16-64 32.1-92.9 16.1-28.8 37.1-54.5 62.2-76 25.1-21.4 53.7-38.3 84.6-49.8 31-11.4 63.7-17.3 96.7-17.4 5.1 0 10.1 0.2 15.2 0.4 24.4-61.7 66.8-114.6 121.6-152.1 54.8-37.4 119.5-57.6 185.8-57.9 66.4-0.3 131.3 19.3 186.4 56.3 55.2 36.9 98 89.5 123 151 43.1-5 86.7-0.8 128 12.4 41.3 13.1 79.4 34.8 111.7 63.7 32.3 28.9 58.1 64.4 75.8 104 17.6 39.6 26.7 82.5 26.6 125.8 0.1 14.6-0.9 29.2-3 43.6-2.1 14.5-5.3 28.8-9.5 42.7-4.2 14-9.5 27.6-15.7 40.8-6.2 13.2-13.5 25.9-21.6 38h-88.9c36.8-47.1 60.6-97.4 60.6-165.1 0-37.9-9.4-75.3-27.4-108.7-18-33.4-43.9-61.9-75.6-82.8-31.6-21-67.9-33.7-105.7-37.2-37.8-3.5-75.8 2.5-110.7 17.4-7.5-61.7-37.3-118.5-83.7-159.7-46.5-41.2-106.4-64-168.4-64-62.1-0.1-122 22.6-168.5 63.7-46.6 41.1-76.4 97.8-84 159.5-27-10.5-55.9-15-84.8-13.2-28.9 1.8-57 9.8-82.5 23.5-25.5 13.8-47.7 32.8-65.1 56-17.4 23.1-29.6 49.7-35.7 78zm-0.7 33.6h78.5v327.7h-78.5zm112.2 0h84.9l79.1 217.3h1.7l74.4-217.3h86.2l-132.8 327.5h-61.4zm732.9 327.6l96.8-147.6q-2.6 0.5-5.3 0.9-2.6 0.4-5.3 0.7-2.6 0.2-5.3 0.2-2.7 0.1-5.4-0.1c-61.9-0.6-129.2-54.9-129.2-142.3 0-92.7 71.4-157 151.1-157 78.5 0 151.6 60.8 151.6 156.4q0 7-0.7 13.9-0.7 6.9-1.9 13.7-1.3 6.9-3.2 13.6-1.8 6.7-4.2 13.2-2.5 6.4-5.3 12.7-2.9 6.3-6.1 12.5-3.2 6.1-6.7 12.1-3.5 5.9-7.3 11.7l-121.5 185.4zm97.9-370.8c-47.8 0-73.2 41.3-73.2 75.6 0 44.3 30.3 76.7 73.2 76.7 47.2 0 72.6-41.3 72.6-73.8 0-42.9-31.3-78.4-72.6-78.4zm-185.6 276c-21.6 55.9-81.8 105.7-154.8 105.7-22.8 0.1-45.4-4.3-66.5-13-21.1-8.7-40.2-21.5-56.3-37.7-16.1-16.1-28.8-35.3-37.4-56.4-8.6-21.1-13-43.7-12.8-66.5 0-92.8 71.4-177.8 172.3-177.8 103.8 0 169.3 89.8 169.3 172.4q0 5-0.3 10-0.3 5-0.9 10-0.6 4.9-1.5 9.8-0.8 5-2 9.8h-254.3c3.5 21.3 34.1 67.3 90.3 67.3 31 0 55-12 70.3-33.6zm-247.6-96.8h181.2c-8.9-52.6-49.6-76.8-88.5-76.8-29 0-77.9 15.9-92.7 76.8z"/>
</svg>